<svg xmlns="http://www.w3.org/2000/svg" viewBox="0 0 1093.06 184.58"><defs><style>.cls-1{fill:#fff;}</style></defs><g id="Layer_2" data-name="Layer 2"><g id="Layer_1-2" data-name="Layer 1"><path class="cls-1" d="M597.26,0C592.14.18,587,.16,581.9,0a3.38,3.38,0,0,0-3.64,2.33c-25.8,54.7-59.77,125.73-86.33,181.88h18.49C534.9,131.64,587.33,19.87,589.59,15c.57,1.17,52.67,114.05,78,169.25h18.3c-14-30.06-67.75-145.42-84.61-181.66-.9-1.92-1.89-2.63-4-2.56Z"/><path class="cls-1" d="M719.46.08V16.16c15.14.14,69.7.16,70.94.16,0,1.24,0,109.46,0,167.9h19.21c0-63.3,0-166.73,0-167.9l71.59,0V.06c-51.06,0-110.68,0-161.74,0Z"/><path class="cls-1" d="M1093.05,16.3V.06c-51.06,0-110.68,0-161.74,0V16.16c15.14.14,69.7.16,70.94.16,0,1.24,0,109.46,0,167.9h19.21c0-63.3,0-166.73,0-167.9l71.59,0Z"/><path class="cls-1" d="M105.33,0C100.21.18,95.09.16,90,0a3.38,3.38,0,0,0-3.64,2.33C60.53,57,26.56,128.07,0,184.22H18.49C43,131.64,95.4,19.87,97.66,15c.57,1.17,52.67,114.05,78,169.25H194C180,154.16,126.22,38.8,109.36,2.56c-.9-1.92-1.89-2.63-4-2.56Z"/><path class="cls-1" d="M361.15,99.14c26.25-3.08,43-24.23,39.49-55.89C398.92,27.93,393,16,379.15,8.59c-10-5.34-20.93-7.53-32.12-8-11.75-.5-23.53-.44-35.3-.5-8,0-31.16,0-51.45,0V16.56c27.61,0,61.55,0,76.46.09,10,.08,19.91,1,29.32,4.81,8.08,3.24,13.45,9.09,15.15,17.58a60.68,60.68,0,0,1,1.06,16c-.85,11.62-6.51,20.21-17.81,24.29a53.42,53.42,0,0,1-11.67,3,185.52,185.52,0,0,1-20.4,1.37c-19.95.17-71.93,0-71.93,0s.15,73.22.12,100.45h16.09c0-25.17,0-60.22,0-80.42v-3.34c1.14,0,2-.13,2.89-.13,20.94,0,62.46,0,62.46,0s42.9,81,44.81,84.22h20.8c-10-17.46-44.83-85-46.48-85.44Z"/></g></g></svg>